<?xml version="1.0" standalone="no"?><!DOCTYPE svg PUBLIC "-//W3C//DTD SVG 1.1//EN" "http://www.w3.org/Graphics/SVG/1.1/DTD/svg11.dtd"><svg t="1745138233865" class="icon" viewBox="0 0 1024 1024" version="1.1" xmlns="http://www.w3.org/2000/svg" p-id="17342" xmlns:xlink="http://www.w3.org/1999/xlink" width="200" height="200"><path d="M341.338 895.992c-9.718 0-18.498-6.656-20.78-16.5-0.218-1-20.282-83.53-84.438-116.56-38.592-19.876-86.592-18.25-142.652 4.812-10.906 4.438-23.376-0.75-27.844-11.624-4.5-10.906 0.718-23.376 11.624-27.874 68.28-28.062 128.436-29.124 178.746-3.062 81.81 42.31 105.186 140.558 106.154 144.684 2.624 11.5-4.562 22.938-16.032 25.562a21.02 21.02 0 0 1-4.778 0.562z" fill="#ffffff" p-id="17343"></path><path d="M853.312 1023.99c-70.558 0-127.996-57.438-127.996-127.998s57.438-127.998 127.996-127.998c70.624 0 128 57.438 128 127.998s-57.374 127.998-128 127.998z m0-213.308c-47.06 0-85.308 38.248-85.308 85.31 0 47.06 38.248 85.31 85.308 85.31 47.062 0 85.376-38.25 85.376-85.31 0-47.062-38.312-85.31-85.376-85.31z" fill="#ffffff" p-id="17344"></path><path d="M764.878 818.994c29.436-22.062 55.06-29.312 56.186-29.594l0.25-0.094v-69.31c-0.25 0-26.312 1.688-61.748 20.124-32.688 17.062-80.438 52.376-121.938 123.936l-6.186 10.624h-334.54c1.188 7 1.782 14.124 1.782 21.312v1.062l-2.344 23.468-0.218 1.032a131.512 131.512 0 0 1-4.75 17.124h391.32c15.874-50.374 43.562-90.624 82.186-119.684z" fill="#ffffff" p-id="17345"></path><path d="M273.714 930.868l-60.374-34.876 60.374-34.876c10.218-5.876 13.718-18.938 7.812-29.124-5.876-10.186-18.938-13.686-29.124-7.81l-60.374 34.874v-69.748c0-11.75-9.562-21.312-21.344-21.312s-21.344 9.562-21.344 21.312v69.748l-60.374-34.874c-10.188-5.876-23.25-2.376-29.124 7.81-5.906 10.188-2.406 23.25 7.812 29.124l60.374 34.876-60.374 34.876c-10.218 5.874-13.718 18.936-7.812 29.124a21.33 21.33 0 0 0 18.5 10.688c3.594 0 7.282-0.938 10.624-2.876l60.374-34.876v69.75c0 11.75 9.562 21.312 21.344 21.312s21.344-9.562 21.344-21.312v-69.75l60.374 34.876c3.344 1.938 7 2.876 10.624 2.876 7.376 0 14.562-3.844 18.5-10.688 5.908-10.19 2.408-23.252-7.812-29.124z" fill="#ffffff" p-id="17346"></path><path d="M853.312 927.992c17.688 0 32-15.5 32-34.594V64.008h-63.998v829.422c0 19.062 14.374 34.562 31.998 34.562z" fill="#ffffff" p-id="17347"></path><path d="M821.314 320.002h63.998v298.68h-63.998z" fill="#ffffff" p-id="17348"></path><path d="M768.004 85.336c0 47.124 38.186 85.342 85.308 85.342 47.124 0 85.376-38.218 85.376-85.342 0-47.124-38.25-85.326-85.376-85.326-47.122 0-85.308 38.2-85.308 85.326z" fill="#ffffff" p-id="17349"></path><path d="M838.25 100.43c8.312 8.328 21.812 8.328 30.188 0 8.312-8.328 8.312-21.844 0-30.172-8.376-8.328-21.876-8.328-30.188 0-8.31 8.328-8.31 21.844 0 30.172z" fill="#ffffff" p-id="17350"></path><path d="M170.686 1023.99c-70.592 0-127.998-57.438-127.998-127.998s57.406-127.998 127.998-127.998c70.56 0 127.998 57.438 127.998 127.998s-57.438 127.998-127.998 127.998z m0-213.308c-47.06 0-85.342 38.248-85.342 85.31 0 47.06 38.282 85.31 85.342 85.31 47.062 0 85.342-38.25 85.342-85.31 0-47.062-38.28-85.31-85.342-85.31zM885.312 597.31h-74.624a21.366 21.366 0 0 0-21.376 21.374c0 11.75 9.562 21.312 21.376 21.312h74.624v-42.686z" fill="#ffffff" p-id="17351"></path></svg>