<?xml version="1.0" standalone="no"?><!DOCTYPE svg PUBLIC "-//W3C//DTD SVG 1.1//EN" "http://www.w3.org/Graphics/SVG/1.1/DTD/svg11.dtd"><svg t="1745135042530" class="icon" viewBox="0 0 1024 1024" version="1.1" xmlns="http://www.w3.org/2000/svg" p-id="5636" xmlns:xlink="http://www.w3.org/1999/xlink" width="200" height="200"><path d="M512 512m-469.333333 0a469.333333 469.333333 0 1 0 938.666666 0 469.333333 469.333333 0 1 0-938.666666 0Z" fill="#FFFFFF" p-id="5637"></path><path d="M512 1024a512 512 0 1 1 512-512 512 512 0 0 1-512 512z m0-938.666667a426.666667 426.666667 0 1 0 426.666667 426.666667A426.666667 426.666667 0 0 0 512 85.333333z" fill="#F7562F" p-id="5638"></path><path d="M582.4 271.36a145.066667 145.066667 0 0 1 153.173333 156.586667c0 85.333333-39.68 156.16-142.506666 156.16h-114.773334v208.213333H373.76V271.36z m10.24 104.106667h-114.346667v104.533333h104.106667c42.666667 0 52.053333-11.52 52.053333-52.053333v-15.36c0-28.586667-3.413333-37.12-42.666666-37.12z" p-id="5639"></path><path d="M157.269333 807.466667L803.84 160.853333l77.525333 77.568L234.837333 884.992z" fill="#F7562F" p-id="5640"></path></svg>