<?xml version="1.0" standalone="no"?><!DOCTYPE svg PUBLIC "-//W3C//DTD SVG 1.1//EN" "http://www.w3.org/Graphics/SVG/1.1/DTD/svg11.dtd"><svg t="1745824014251" class="icon" viewBox="0 0 1152 1024" version="1.1" xmlns="http://www.w3.org/2000/svg" p-id="3251" xmlns:xlink="http://www.w3.org/1999/xlink" width="225" height="200"><path d="M576 1024c-247.424 0-448-70.016-448-156.48 0-61.76 102.4-115.2 250.88-140.8l181.44 192a21.44 21.44 0 0 0 31.616 0l181.248-192c148.544 25.6 250.88 78.784 250.88 140.8C1024 954.048 823.424 1024 576 1024z m11.776-201.088a16.128 16.128 0 0 1-23.552 0s-236.096-250.24-236.8-251.264a356.992 356.992 0 0 1-78.656-225.216 327.68 327.68 0 1 1 654.336 0 356.928 356.928 0 0 1-78.656 225.28c-0.512 0.96-230.144 244.352-236.672 251.2zM576 188.224a138.112 138.112 0 0 0-99.712 43.84 151.808 151.808 0 0 0-40.896 104.96A140.8 140.8 0 1 0 576 188.224z" p-id="3252" fill="#13227a"></path></svg>