<?xml version="1.0" standalone="no"?><!DOCTYPE svg PUBLIC "-//W3C//DTD SVG 1.1//EN" "http://www.w3.org/Graphics/SVG/1.1/DTD/svg11.dtd"><svg t="1745411413263" class="icon" viewBox="0 0 1024 1024" version="1.1" xmlns="http://www.w3.org/2000/svg" p-id="8409" xmlns:xlink="http://www.w3.org/1999/xlink" width="200" height="200"><path d="M511.942774 1001.109646a487.907902 487.907902 0 0 1-345.873253-143.293618A489.281323 489.281323 0 0 1 321.609478 61.34615a489.510227 489.510227 0 0 1 641.044372 641.044372 490.9981 490.9981 0 0 1-260.37778 260.263328 485.16106 485.16106 0 0 1-190.333296 38.455796z" fill="#EB8304" p-id="8410"></path><path d="M511.942774 45.780709a464.788644 464.788644 0 1 1-181.406058 36.624567 463.644127 463.644127 0 0 1 181.406058-36.624567m0-45.780709C229.132447 0 0 229.246898 0 511.942774s229.132447 512.057226 511.942774 512.057226 511.942774-229.246898 511.942774-512.057226S794.753102 0 511.942774 0z" fill="#FFFFFF" p-id="8411"></path><path d="M394.858612 800.361238a22.775903 22.775903 0 0 1-22.890354-22.890354V245.842405a22.890354 22.890354 0 0 1 45.780708 0v531.628479a22.890354 22.890354 0 0 1-22.890354 22.890354zM549.482955 547.19392a22.890354 22.890354 0 0 1 0-45.780709c65.809769 0 119.258746-52.762267 119.258746-117.656421s-53.448977-117.770873-119.258746-117.770873a22.890354 22.890354 0 0 1 0-45.780709c90.989158 0 165.039455 73.363586 165.039455 163.551582s-74.050296 163.43713-165.039455 163.43713z" fill="#FFFFFF" p-id="8412"></path><path d="M549.482955 265.985917H394.858612a22.890354 22.890354 0 0 1 0-45.780709h154.624343a22.890354 22.890354 0 0 1 0 45.780709zM551.199732 547.537275H396.575388a22.890354 22.890354 0 1 1 0-45.780709h154.624344a22.890354 22.890354 0 0 1 0 45.780709z" fill="#FFFFFF" p-id="8413"></path></svg>